<?xml version="1.0" ?><!-- Uploaded to: SVG Repo, www.svgrepo.com, Generator: SVG Repo Mixer Tools -->
<svg width="800px" height="800px" viewBox="0 0 128 128" data-name="Слой 1" id="Слой_1" xmlns="http://www.w3.org/2000/svg"><defs><style>.cls-1{fill:none;}.cls-2{fill:#1ED760;}.cls-3{fill:#1ED760;}</style></defs><title/><path class="cls-1" d="M106,22h4.06A4,4,0,0,1,114,25.94V90.06A4,4,0,0,1,110.06,94H17.94A4,4,0,0,1,14,90.06V25.94A4,4,0,0,1,17.94,22H106Z"/><path class="cls-2" d="M110.06,96H17.94A6,6,0,0,1,12,90.06V25.94A6,6,0,0,1,17.94,20h92.11A6,6,0,0,1,116,25.94V90.06A6,6,0,0,1,110.06,96ZM17.94,24A2,2,0,0,0,16,25.94V90.06A2,2,0,0,0,17.94,92h92.11A2,2,0,0,0,112,90.06V25.94A2,2,0,0,0,110.06,24Z"/><path class="cls-3" d="M126,94v.5c0,3.58-2.92,7.5-6.5,7.5H8.5C4.92,102,2,98.07,2,94.5V94Z"/><path class="cls-2" d="M119.5,104H8.5C3.64,104,0,99,0,94.5V94a2,2,0,0,1,2-2H126a2,2,0,0,1,2,2v.5C128,99,124.36,104,119.5,104ZM4.23,96c.6,2,2.33,4,4.27,4h111c1.95,0,3.67-2,4.27-4Z"/></svg>
