<?xml version="1.0" ?><!-- Uploaded to: SVG Repo, www.svgrepo.com, Generator: SVG Repo Mixer Tools -->
<svg width="800px" height="800px" viewBox="0 0 128 128" data-name="Слой 1" id="i" xmlns="http://www.w3.org/2000/svg"><defs><style>.cls-1{fill:none;}.cls-2{fill:#1ED760;}</style></defs><title/><path class="cls-1" d="M98,52.91V9.75A7.9,7.9,0,0,0,90,2H38a7.9,7.9,0,0,0-8,7.75v108.5A7.9,7.9,0,0,0,38,126H90a7.9,7.9,0,0,0,8-7.75Z"/><path class="cls-2" d="M90,128H38a9.89,9.89,0,0,1-10-9.75V9.75A9.89,9.89,0,0,1,38,0H90a9.89,9.89,0,0,1,10,9.75v108.5A9.89,9.89,0,0,1,90,128ZM38,4a5.89,5.89,0,0,0-6,5.75v108.5A5.89,5.89,0,0,0,38,124H90a5.89,5.89,0,0,0,6-5.75V9.75A5.89,5.89,0,0,0,90,4Z"/><path class="cls-2" d="M75.05,12H52.95C50.22,12,48,9.43,48,6.28V2.49h4V6.28c0,1,.57,1.72.95,1.72H75.05c.38,0,.95-.69.95-1.72V3.11h4V6.28C80,9.43,77.78,12,75.05,12Z"/></svg>
