<svg xmlns="http://www.w3.org/2000/svg" width="800px" height="800px" viewBox="0 0 24 24" fill="none">
<path d="M21 12C21 16.9706 16.9706 21 12 21C7.02944 21 3 16.9706 3 12C3 7.02944 7.02944 3 12 3C16.9706 3 21 7.02944 21 12Z" stroke="#1ED760" stroke-width="2"/>
<path d="M7 12C7 9.23858 9.23858 7 12 7" stroke="#1ED760" stroke-width="2" stroke-linecap="round"/>
<path d="M17 12C17 14.7614 14.7614 17 12 17" stroke="#1ED760" stroke-width="2" stroke-linecap="round"/>
<path d="M13 12C13 12.5523 12.5523 13 12 13C11.4477 13 11 12.5523 11 12C11 11.4477 11.4477 11 12 11C12.5523 11 13 11.4477 13 12Z" stroke="#1ED760" stroke-width="2"/>
</svg>
