	.st0{fill:##3A3A3A}
<!-- Generator: Adobe Illustrator 24.1.2, SVG Export Plug-In . SVG Version: 6.00 Build 0)  -->
<svg version="1.1" id="Capa_1" xmlns="http://www.w3.org/2000/svg" xmlns:xlink="http://www.w3.org/1999/xlink" x="0px" y="0px"
	 viewBox="0 0 429.2 429.2" style="enable-background:new 0 0 429.2 429.2;" xml:space="preserve">
<style type="text/css">
	.st0{fill:#1ED760;}
</style>
<g>
	<g>
		<path class="st0" d="M47.1,247.9v-94.2c0-13-10.5-23.6-23.6-23.6c-13,0-23.6,10.5-23.6,23.6v94.2c0,13,10.5,23.6,23.5,23.6
			C36.6,271.5,47.1,260.9,47.1,247.9z"/>
		<path class="st0" d="M123,346.1V71.3c0-13-10.5-23.6-23.5-23.6S75.9,58.3,75.9,71.3v274.8c0,13,10.5,23.6,23.6,23.6
			S123,359.1,123,346.1z"/>
		<path class="st0" d="M198.9,305.5V153.7c0-13-10.5-23.6-23.6-23.6s-23.6,10.5-23.6,23.6v151.8c0,13,10.5,23.6,23.6,23.6
			S198.9,318.5,198.9,305.5z"/>
		<path class="st0" d="M405.6,177.3c-13,0-23.6,10.5-23.6,23.6v130.9c0,13,10.5,23.6,23.6,23.6c13,0,23.6-10.5,23.6-23.6V200.8
			C429.2,187.8,418.6,177.3,405.6,177.3z"/>
		<path class="st0" d="M329.7,12.4c-13,0-23.5,10.5-23.5,23.6v357.2c0,13,10.5,23.6,23.5,23.6c13,0,23.6-10.5,23.6-23.6V36
			C353.3,23,342.7,12.4,329.7,12.4z"/>
		<path class="st0" d="M253.8,355.2c13,0,23.6-10.5,23.6-23.6v-227c0-13-10.5-23.6-23.6-23.6c-13,0-23.6,10.5-23.6,23.6v227
			C230.3,344.7,240.8,355.2,253.8,355.2z"/>
	</g>
</g>
</svg>
